<svg width="42" height="24" viewBox="0 0 42 24" fill="none" xmlns="http://www.w3.org/2000/svg">
<path d="M0 12C0 16.4183 3.58172 20 8 20C12.4183 20 16 16.4183 16 12C16 7.58172 12.4183 4 8 4C3.58172 4 0 7.58172 0 12ZM41.0607 13.0607C41.6464 12.4749 41.6464 11.5251 41.0607 10.9393L31.5147 1.3934C30.9289 0.807611 29.9792 0.807611 29.3934 1.3934C28.8076 1.97919 28.8076 2.92893 29.3934 3.51472L37.8787 12L29.3934 20.4853C28.8076 21.0711 28.8076 22.0208 29.3934 22.6066C29.9792 23.1924 30.9289 23.1924 31.5147 22.6066L41.0607 13.0607ZM8 13.5H40V10.5H8V13.5Z" fill="white"/>
</svg>
